<?xml version="1.0" encoding="UTF-8"?>
<svg id="logo_on_BG" data-name="logo on BG" xmlns="http://www.w3.org/2000/svg" viewBox="0 0 505.11 180">
  <defs>
    <style>
      .cls-1 {
        fill: #4ad3d3;
      }

      .cls-1, .cls-2, .cls-3, .cls-4, .cls-5 {
        stroke-width: 0px;
      }

      .cls-2 {
        fill: #080a0a;
      }

      .cls-3 {
        fill: #1c9393;
      }

      .cls-4 {
        fill: #30b4b7;
      }

      .cls-5 {
        fill: #fff;
      }
    </style>
  </defs>
  <rect class="cls-5" x="0" y="0" width="505.11" height="180" rx="20" ry="20"/>
  <g>
    <g>
      <g>
        <path class="cls-2" d="m163.72,97.04c0-8.18,6.95-11.51,15.34-11.51h9.12c0-6.15-3.26-8.76-7.82-8.76-4.12,0-7.45,1.81-8.18,5.86h-7.74c.65-7.74,8.03-12.3,15.99-12.3,10.42,0,15.49,6.3,15.49,14.98v21.78h-6.65s-.16-6.08-.16-6.08c-2.32,3.91-7.02,6.95-12.66,6.95-6.95,0-12.74-3.91-12.74-10.93Zm24.46-6.01v-.14h-8.54c-4.2,0-8.03,1.3-8.03,5.5,0,3.62,2.97,5.28,6.66,5.28,5.93,0,9.91-4.92,9.91-10.64Z"/>
        <path class="cls-2" d="m204.32,71.21h7.38l.14,5.28c2.39-3.98,7.02-6.15,11.87-6.15,8.39,0,14.11,5.28,14.11,15.7v21.06h-7.67v-20.12c0-6.44-2.97-10.13-8.68-10.13s-9.48,4.12-9.48,11v19.25h-7.67v-35.89Z"/>
        <path class="cls-2" d="m245.43,71.21h7.38l.29,5.43c2.53-3.62,6.8-6.3,12.59-6.3,10.64,0,17.22,8.25,17.22,18.74s-6.73,18.89-17.22,18.89c-6.01,0-10.42-2.82-12.59-6.37v21.42h-7.67v-51.81Zm29.67,17.87c0-7.24-4.56-12.08-11-12.08s-10.93,4.99-10.93,12.16,4.34,12.08,10.93,12.08,11-5.21,11-12.16Z"/>
        <path class="cls-2" d="m289.78,56.45h7.67v19.9c2.39-3.91,7.09-6.01,11.87-6.01,8.25,0,13.97,5.28,13.97,15.7v21.06h-7.6v-20.12c0-6.44-2.97-10.13-8.61-10.13s-9.62,4.12-9.62,11v19.25h-7.67v-50.66Z"/>
        <path class="cls-2" d="m329.51,89.08c0-11.58,8.18-18.74,18.67-18.74s18.67,7.09,18.67,18.74c0,11-7.89,18.89-18.96,18.89-10.42,0-18.38-7.24-18.38-18.89Zm29.53-.07c0-7.24-4.56-12.01-11-12.01-6.8,0-10.78,5.21-10.78,12.08,0,8.03,5.07,12.23,10.71,12.23,6.37,0,11.07-5.14,11.07-12.3Z"/>
        <path class="cls-2" d="m373.72,71.21h7.38l.14,5.28c2.39-3.98,7.02-6.15,11.87-6.15,8.39,0,14.11,5.28,14.11,15.7v21.06h-7.67v-20.12c0-6.44-2.97-10.13-8.68-10.13s-9.48,4.12-9.48,11v19.25h-7.67v-35.89Z"/>
        <path class="cls-2" d="m415.33,71.21h7.67v35.89h-7.67v-35.89Z"/>
        <path class="cls-2" d="m430.38,89.16c0-11,7.16-18.81,18.02-18.81,8.54,0,14.91,4.56,16.72,12.52h-8.1c-.87-3.55-4.2-6.01-8.68-6.01-6.8,0-10.13,5.72-10.13,12.3,0,6.95,3.76,12.3,10.13,12.3,4.34,0,7.67-2.1,8.68-6.08h8.1c-1.74,7.67-8.18,12.59-16.72,12.59-10.57,0-18.02-7.6-18.02-18.81Z"/>
      </g>
      <rect class="cls-2" x="414.75" y="54.75" width="8.84" height="8.84"/>
    </g>
    <g>
      <g>
        <path class="cls-3" d="m117.74,90c-3.68-1.61-7.14-3.63-10.34-5.98-4.4-3.23-8.32-7.12-11.57-11.5-2.35-3.15-4.37-6.57-5.99-10.21-3.07-6.81-4.77-14.37-4.77-22.32h-10.03c0,5.49.69,10.83,1.98,15.92,1.5,5.9,3.82,11.47,6.82,16.6,1.77,3.03,3.77,5.9,5.99,8.59,2.68,3.24,5.68,6.22,8.93,8.89,2.71,2.22,5.59,4.22,8.64,5.98,5.21,3.02,10.87,5.32,16.85,6.79,4.67,1.15,9.53,1.79,14.54,1.84v-10.02c-7.48-.12-14.59-1.74-21.06-4.59Z"/>
        <path class="cls-3" d="m109.39,40h-10.03c0,5.65,1.17,11.04,3.29,15.92,4.14,9.61,11.93,17.29,21.61,21.31,4.5,1.87,9.4,2.95,14.54,3.05v-10.02c-16.29-.46-29.4-13.85-29.4-30.26Z"/>
      </g>
      <g>
        <path class="cls-4" d="m94.61,40c0,7.94-1.7,15.5-4.77,22.32-1.64,3.63-3.65,7.05-6,10.21-3.26,4.38-7.17,8.27-11.58,11.5-3.2,2.35-6.66,4.37-10.34,5.98-6.71,2.95-14.12,4.6-21.92,4.6v10.03c5.31,0,10.47-.64,15.4-1.86,5.99-1.47,11.66-3.77,16.85-6.79,3.05-1.76,5.94-3.76,8.65-5.98,3.26-2.67,6.24-5.65,8.92-8.89,2.22-2.69,4.23-5.56,6-8.59,3-5.13,5.31-10.7,6.82-16.6,1.3-5.09,1.98-10.43,1.98-15.92h-10.03Z"/>
        <path class="cls-4" d="m70.28,40c0,16.69-13.58,30.27-30.28,30.27v10.03c5.45,0,10.65-1.09,15.4-3.06,9.68-4.02,17.47-11.7,21.61-21.31,2.11-4.88,3.29-10.27,3.29-15.92h-10.03Z"/>
      </g>
      <g>
        <path class="cls-4" d="m124.26,77.23c-5.99,1.47-11.65,3.77-16.85,6.79-3.05,1.76-5.93,3.76-8.64,5.98-3.26,2.66-6.25,5.64-8.93,8.89-2.22,2.68-4.23,5.56-5.99,8.59-3,5.12-5.31,10.7-6.82,16.6-1.3,5.09-1.98,10.43-1.98,15.92h10.03c0-7.95,1.7-15.5,4.77-22.32,1.63-3.63,3.64-7.05,5.99-10.21,3.26-4.38,7.17-8.27,11.57-11.5,3.2-2.35,6.66-4.37,10.34-5.98,6.46-2.85,13.58-4.47,21.06-4.59v-10.02c-5.01.05-9.87.69-14.54,1.84Z"/>
        <path class="cls-4" d="m124.26,102.77c-9.68,4.02-17.46,11.7-21.61,21.31-2.11,4.88-3.29,10.27-3.29,15.92h10.03c0-16.41,13.11-29.8,29.4-30.26v-10.02c-5.14.1-10.04,1.18-14.54,3.05Z"/>
      </g>
      <g>
        <path class="cls-1" d="m102.65,124.08c-1.5-5.9-3.82-11.48-6.82-16.6-1.77-3.03-3.78-5.91-6-8.59-2.68-3.25-5.67-6.22-8.92-8.89-2.71-2.22-5.6-4.22-8.65-5.98-5.2-3.02-10.87-5.32-16.85-6.79-4.94-1.22-10.1-1.86-15.4-1.86v10.03c7.8,0,15.21,1.64,21.92,4.6,3.68,1.61,7.14,3.63,10.34,5.98,4.41,3.23,8.32,7.12,11.58,11.5,2.35,3.15,4.37,6.57,6,10.21,3.06,6.81,4.77,14.37,4.77,22.32h10.03c0-5.49-.69-10.83-1.98-15.92Z"/>
        <path class="cls-1" d="m77.02,124.08c-4.14-9.61-11.93-17.3-21.61-21.31-4.75-1.97-9.95-3.06-15.4-3.06v10.03c16.69,0,30.28,13.58,30.28,30.27h10.03c0-5.65-1.17-11.04-3.29-15.92Z"/>
      </g>
    </g>
  </g>
</svg>
